<svg width="252" height="168" viewBox="0 0 252 168" fill="none" xmlns="http://www.w3.org/2000/svg">
<path d="M246.14 99.2717C245.243 102.787 245.102 106.607 245.079 110.214C245.073 111.245 245.076 112.258 245.079 113.263C245.086 115.941 245.094 118.557 244.922 121.279C244.465 128.526 242.769 135.478 236.715 141.672C230.523 148.008 219.245 154.094 198.371 158.19C177.538 162.278 147.606 164.295 104.647 162.887C41.0227 160.802 15.9774 142.739 8.33584 125.427C4.4802 116.691 4.71436 107.527 7.23143 99.4679C9.77176 91.3343 14.5324 84.6734 19.1998 81.0576C24.348 77.0693 28.2935 74.3186 31.3883 72.1611C31.5326 72.0605 31.6751 71.9611 31.8158 71.863L31.8303 71.8529C34.8596 69.7401 37.4343 67.9444 39.3113 66.0028C43.6955 61.4676 44.0139 56.3721 44.4928 47.7497C44.5695 46.3682 45.171 44.2309 46.569 41.4336C47.9342 38.702 49.9233 35.6099 52.4566 32.3866C57.529 25.9325 64.5707 19.2218 72.5615 14.0506C80.5756 8.8643 89.2725 5.39956 97.7086 5.01971C105.984 4.64708 114.268 7.21816 121.86 14.6092C140.412 32.67 160.164 29.4357 176.476 26.7645C176.673 26.7322 176.871 26.6999 177.067 26.6677C185.499 25.2886 192.657 24.1898 199.132 25.3246C205.221 26.3917 210.959 29.504 216.257 37.439C222.27 46.4461 227.583 53.5988 232.029 59.5734L232.149 59.7342C236.581 65.689 240.021 70.3101 242.561 74.5274C245.084 78.7175 246.568 82.2736 247.167 85.9722C247.764 89.6628 247.531 93.8227 246.14 99.2717Z" stroke="#FFA7CD" stroke-width="9"/>
<path d="M123.998 163C133.108 163.096 162.731 147.97 159.366 110.485C156 72.9998 107 94.5 135.776 117.743" stroke="#FFA7CD" stroke-opacity="0.69" stroke-width="9" stroke-linecap="round"/>
</svg>
